<svg>
    <symbol id="logo" width="80" height="47" viewBox="0 0 80 47" fill="none" xmlns="http://www.w3.org/2000/svg">
        <g clip-path="url(#clip0_501_395)">
        <path d="M70.3333 34.617C70.0198 34.617 69.7847 34.4668 69.6018 34.1163C69.445 33.8158 69.3405 33.3151 69.3405 32.7141V14.236C69.3405 13.6351 69.4189 13.1343 69.6018 12.8339C69.7847 12.5334 70.0198 12.3832 70.3333 12.3832H72.0838C72.4757 12.3832 72.8154 12.4333 73.1028 12.4833C73.3901 12.5835 73.6514 12.7337 73.8343 13.0342C74.0433 13.3346 74.1739 13.7353 74.2785 14.3362C74.383 14.887 74.4352 15.6882 74.4352 16.6397V30.3606C74.4352 31.6125 74.3568 32.5138 74.1739 33.1147C73.9911 33.7157 73.7298 34.1163 73.3901 34.3166C73.0505 34.5169 72.6063 34.617 72.0838 34.567L70.3333 34.617ZM64.7161 1.61681C64.4026 1.66689 64.1413 1.81712 63.9845 2.11758C63.8278 2.41803 63.7494 2.91879 63.7494 3.51971V43.4805C63.7494 44.0814 63.8278 44.5321 64.0107 44.8827C64.1674 45.1831 64.4287 45.3834 64.7422 45.3834H72.0054C73.5208 45.3834 74.8271 45.083 75.8722 44.482C76.9173 43.8811 77.7533 42.9297 78.3803 41.7279C79.0074 40.526 79.4777 38.9236 79.7389 37.0207C80.0263 35.1178 80.157 32.9144 80.157 30.3606V16.6397C80.157 14.0858 80.0263 11.8824 79.7389 9.97954C79.4515 8.07664 79.0074 6.52428 78.3803 5.32245C77.7533 4.07055 76.9173 3.16918 75.8722 2.56826C74.8271 1.96735 73.5469 1.66689 72.0054 1.66689L64.7161 1.61681ZM55.206 28.007C55.206 29.2088 55.1798 30.3105 55.1537 31.2619C55.1014 32.2134 54.9969 33.0146 54.8402 33.7157C54.6834 34.4167 54.4222 34.9175 54.0564 35.268C53.7167 35.6186 53.2465 35.8189 52.6455 35.8189C52.0446 35.8189 51.5743 35.6186 51.2347 35.268C50.8689 34.9175 50.6338 34.4167 50.4509 33.7157C50.2941 33.0647 50.1896 32.2134 50.1374 31.2619C50.0851 30.3105 50.059 29.2088 50.0851 28.007V18.9933C50.0851 17.7914 50.1112 16.6898 50.1374 15.7383C50.1896 14.7869 50.2941 13.9856 50.4509 13.2846C50.6077 12.5835 50.8689 12.0827 51.2347 11.7322C51.5743 11.3817 52.0446 11.1814 52.6455 11.1814C53.2465 11.1814 53.7167 11.3817 54.0564 11.7322C54.4222 12.0827 54.6573 12.5835 54.8402 13.2846C54.9969 13.9356 55.1014 14.7869 55.1537 15.7383C55.206 16.6898 55.206 17.7914 55.206 18.9933V28.007ZM60.7971 15.6882C60.7971 14.9872 60.7709 14.1359 60.7187 13.1343C60.6664 12.1328 60.5619 11.0812 60.379 9.92946C60.1962 8.77771 59.9349 7.67603 59.5952 6.57436C59.2295 5.47268 58.7592 4.47116 58.1583 3.56979C57.5574 2.66841 56.7997 1.91727 55.8853 1.36643C54.9708 0.815594 53.8735 0.565213 52.5933 0.515137C51.3131 0.515137 50.2158 0.815594 49.3013 1.36643C48.3869 1.91727 47.6292 2.66841 47.0283 3.56979C46.4274 4.47116 45.9571 5.47268 45.5913 6.57436C45.2256 7.67603 44.9643 8.82779 44.8075 9.92946C44.6246 11.0812 44.5201 12.1328 44.4679 13.1343C44.4156 14.1359 44.3895 14.9872 44.3895 15.6882V31.312C44.3895 32.0131 44.4156 32.8644 44.4679 33.8659C44.5201 34.8674 44.6246 35.919 44.8075 37.0708C44.9643 38.2225 45.2517 39.3242 45.5913 40.4259C45.9571 41.5275 46.4274 42.5291 47.0283 43.4805C47.6292 44.3819 48.3869 45.133 49.3013 45.6338C50.2158 46.1846 51.3131 46.4851 52.5933 46.4851C53.8735 46.4851 54.9708 46.1846 55.8853 45.6338C56.7997 45.083 57.5574 44.3819 58.1583 43.4805C58.7592 42.5792 59.2295 41.5776 59.5952 40.4259C59.961 39.3242 60.2223 38.1724 60.379 37.0708C60.5358 35.919 60.6664 34.8674 60.7187 33.8659C60.7709 32.8644 60.7971 32.0131 60.7971 31.312V15.6882ZM36.2118 28.007C36.2118 29.2088 36.1857 30.3105 36.1596 31.2619C36.1073 32.2134 36.0028 33.0146 35.8461 33.7157C35.6893 34.4167 35.428 34.9175 35.0623 35.268C34.7226 35.6186 34.2523 35.8189 33.6514 35.8189C33.0505 35.8189 32.5802 35.6186 32.2406 35.268C31.8748 34.9175 31.6397 34.4167 31.4568 33.7157C31.3 33.0647 31.1955 32.2134 31.1432 31.2619C31.091 30.3105 31.0649 29.2088 31.091 28.007V18.9933C31.091 17.7914 31.1171 16.6898 31.1432 15.7383C31.1955 14.7869 31.3 13.9856 31.4568 13.2846C31.6135 12.5835 31.8748 12.0827 32.2406 11.7322C32.5802 11.3817 33.0505 11.1814 33.6514 11.1814C34.2523 11.1814 34.7226 11.3817 35.0623 11.7322C35.428 12.0827 35.6632 12.5835 35.8461 13.2846C36.0028 13.9356 36.1073 14.7869 36.1596 15.7383C36.2118 16.6898 36.2118 17.7914 36.2118 18.9933V28.007ZM41.8291 15.6882C41.8291 14.9872 41.803 14.1359 41.7507 13.1343C41.6984 12.1328 41.5939 11.0812 41.411 9.92946C41.2282 8.77771 40.9669 7.67603 40.6272 6.57436C40.2615 5.47268 39.7912 4.47116 39.1903 3.56979C38.5894 2.66841 37.8317 1.91727 36.9173 1.36643C36.0028 0.815594 34.9055 0.565213 33.6253 0.515137C32.3451 0.515137 31.2478 0.815594 30.3333 1.36643C29.4189 1.91727 28.6612 2.66841 28.0603 3.56979C27.4594 4.47116 26.9891 5.47268 26.6233 6.57436C26.2576 7.67603 25.9963 8.82779 25.8395 9.92946C25.6566 11.0812 25.5521 12.1328 25.4999 13.1343C25.4476 14.1359 25.4215 14.9872 25.4215 15.6882V31.312C25.4215 32.0131 25.4476 32.8644 25.4999 33.8659C25.5521 34.8674 25.6566 35.919 25.8395 37.0708C25.9963 38.2225 26.2837 39.3242 26.6233 40.4259C26.9891 41.5275 27.4594 42.5291 28.0603 43.4805C28.6612 44.3819 29.4189 45.133 30.3333 45.6338C31.2478 46.1846 32.3451 46.4851 33.6253 46.4851C34.9055 46.4851 36.0028 46.1846 36.9173 45.6338C37.8317 45.083 38.5894 44.3819 39.1903 43.4805C39.7912 42.5792 40.2615 41.5776 40.6272 40.4259C40.993 39.3242 41.2543 38.1724 41.411 37.0708C41.5678 35.919 41.6984 34.8674 41.7507 33.8659C41.803 32.8644 41.8291 32.0131 41.8291 31.312V15.6882ZM22.5476 1.61681C23.2007 1.61681 23.5142 2.2678 23.5142 3.46963V10.4803C23.5142 11.0812 23.4359 11.5319 23.2791 11.8824C23.1223 12.233 22.8611 12.3832 22.5476 12.3832H14.0303C13.7167 12.3832 13.4816 12.5334 13.2987 12.8339C13.1158 13.1343 13.0374 13.6351 13.0374 14.236V43.5306C13.0374 44.1315 12.9591 44.5822 12.8023 44.9327C12.6455 45.2332 12.3843 45.4335 12.0707 45.4335H8.23012C7.9166 45.4335 7.68146 45.2833 7.49857 44.9327C7.34181 44.5822 7.2373 44.1315 7.2373 43.5306V3.51971C7.2373 2.91879 7.31568 2.41803 7.49857 2.11758C7.68146 1.81712 7.9166 1.66689 8.23012 1.66689L22.5476 1.61681Z" fill="#B59571"/>
        <path d="M15.2843 25.4031C12.8546 25.0025 0.993032 28.7081 0.104724 24.702C-1.3845 18.0419 11.0779 21.7976 12.7501 21.8977C13.5861 21.9478 14.6312 22.2483 15.2321 21.9478C15.6501 21.6974 15.9375 20.3954 16.4078 19.8947C17.4529 18.6929 19.1511 19.3438 20.6142 19.5942C21.607 19.7445 22.5737 19.9448 23.6188 20.095C22.1295 20.4956 20.5358 20.8962 18.9682 21.2968C18.7853 21.3469 18.4979 21.1967 18.3673 21.5973C19.961 22.098 21.7638 22.1982 23.4881 22.4486C21.7899 22.9493 19.8826 23.0495 18.2105 23.6504C18.315 24.0009 18.6286 23.9008 18.8114 23.9509C20.3007 24.1512 21.9467 24.4015 23.5143 24.5518C21.8944 25.0525 20.0133 25.1527 18.3934 25.7536C18.4457 26.2544 18.7853 26.1041 18.9421 26.1041C20.4313 26.4547 22.1034 26.8553 23.6449 27.1057C21.9467 27.356 19.8565 28.1072 18.106 28.3075C16.7474 28.4577 15.9375 26.9554 15.2843 25.4031Z" fill="#B59571"/>
        <path d="M11.0774 25.8036C12.9585 25.5031 14.5523 25.2527 15.2838 25.3529C15.6235 26.1541 15.9631 26.9053 16.4334 27.4561C16.8775 28.0069 17.4001 28.3575 18.0794 28.2573C19.0461 28.1572 20.1173 27.8567 21.1623 27.6063C21.92 27.406 22.6515 27.2057 23.3308 27.1056C22.6515 27.0054 21.9723 26.8552 21.2668 26.705C20.4569 26.5547 19.6731 26.3544 18.9416 26.1541H18.8109C18.628 26.1541 18.3929 26.1541 18.3668 25.7535V25.7034H18.3929C19.2812 25.3529 20.274 25.1526 21.2668 25.0024C21.9461 24.9022 22.6254 24.752 23.2525 24.6018C22.0768 24.4515 20.8488 24.3013 19.6992 24.1511C19.4118 24.101 19.1244 24.0509 18.837 24.0509H18.7064C18.5235 24.0509 18.3145 24.0509 18.21 23.7505L18.1839 23.7004H18.21C19.1506 23.3498 20.1695 23.1495 21.1884 22.9993C21.8677 22.8992 22.5732 22.7489 23.2263 22.5987C22.8867 22.5486 22.5209 22.4986 22.1813 22.4485C20.8749 22.2982 19.5425 22.148 18.3668 21.7975H18.3145L18.3406 21.7474C18.4451 21.447 18.628 21.447 18.7848 21.447H18.9416L20.1956 21.1465C21.2407 20.8961 22.3119 20.5957 23.3047 20.3453C22.7038 20.2451 22.1029 20.145 21.5281 20.0448C21.2146 19.9947 20.9272 19.9447 20.5875 19.8946L19.8037 19.7444C18.5497 19.494 17.2433 19.1935 16.4073 20.195C16.1982 20.4454 16.0154 20.846 15.8586 21.2466C15.6496 21.6973 15.4667 22.148 15.2316 22.2982C14.8135 22.4986 14.1865 22.4485 13.5594 22.3483C13.2721 22.2982 12.9847 22.2482 12.7234 22.2482C12.436 22.2482 11.8351 22.0979 11.0513 21.9477C8.2296 21.0964 2.92588 20.0448 0.861867 21.7474C0.130319 22.3483 -0.183202 23.2497 0.130319 24.7019C0.731233 27.4561 6.68812 26.5046 11.0774 25.8036ZM15.2838 25.453C14.5523 25.3529 12.9585 25.6033 11.0774 25.9037C6.68812 26.6048 0.705107 27.5562 0.0780654 24.7019C-0.261582 23.1996 0.0780654 22.2482 0.83574 21.5972C2.92588 19.8946 8.2296 20.9462 11.0774 21.497C11.8612 21.6473 12.4621 21.7975 12.7495 21.7975C13.0108 21.7975 13.2982 21.8476 13.5856 21.8976C14.2126 21.9978 14.8135 22.0479 15.2316 21.8476C15.4406 21.7474 15.6235 21.2967 15.8325 20.846C16.0154 20.4454 16.1721 20.0448 16.4073 19.7944C17.2694 18.7929 18.5758 19.0934 19.856 19.3438L20.6398 19.494C20.9272 19.5441 21.2668 19.5941 21.5804 19.6442C22.2596 19.7444 22.9389 19.8946 23.6444 19.9447L23.9318 19.9947L23.6705 20.0949C22.5993 20.3954 21.4497 20.6958 20.3001 20.9963L19.0461 21.2967H18.8893C18.7587 21.2967 18.6019 21.2967 18.4974 21.497C19.6731 21.8476 20.9794 21.9978 22.2858 22.148C22.7299 22.1981 23.148 22.2482 23.5921 22.2982L23.8534 22.3483L23.5921 22.3984C22.8606 22.5987 22.0768 22.7489 21.293 22.8992C20.3001 23.0995 19.2812 23.2497 18.3668 23.6002C18.4451 23.8005 18.628 23.8005 18.7848 23.8005H18.9154C19.2028 23.8506 19.4902 23.9007 19.7776 23.9007C21.0317 24.101 22.338 24.2512 23.5921 24.4014L23.8534 24.4515L23.5921 24.5517C22.8606 24.752 22.1029 24.9022 21.3452 25.0524C20.3785 25.2527 19.4118 25.403 18.5235 25.7535C18.5758 26.054 18.7587 26.0039 18.9154 26.0039H19.0461C19.8037 26.1541 20.5875 26.3544 21.3713 26.5547C22.1551 26.705 22.9651 26.9053 23.7227 27.0054V27.1056C22.9651 27.2057 22.1029 27.4561 21.2407 27.6564C20.1956 27.9068 19.1244 28.2072 18.1578 28.3074C17.4785 28.4075 16.9298 28.057 16.4856 27.5062C15.9631 27.0054 15.5973 26.2543 15.2838 25.453Z" fill="#B59571"/>
        </g>
        <defs>
        <clipPath id="clip0_501_395">
        <rect width="80" height="46" fill="white" transform="translate(0 0.5)"/>
        </clipPath>
        </defs>
    </symbol>


    <symbol id="youtube" width="40" height="40" viewBox="0 0 40 40" fill="none" xmlns="http://www.w3.org/2000/svg">
        <path d="M35.9691 12.3728C35.7804 11.6997 35.4129 11.0902 34.9055 10.6093C34.3838 10.1136 33.7444 9.759 33.0476 9.57899C30.4398 8.89165 19.9923 8.89165 19.9923 8.89165C15.6368 8.8421 11.2824 9.06005 6.9536 9.54428C6.25681 9.73759 5.61858 10.1001 5.0957 10.5996C4.58193 11.0939 4.20979 11.7035 4.01539 12.3714C3.54841 14.8871 3.32151 17.4415 3.33777 20.0002C3.32111 22.5566 3.54744 25.1101 4.01539 27.629C4.20563 28.2941 4.57637 28.9009 5.09153 29.3911C5.60669 29.8813 6.24821 30.2353 6.9536 30.4228C9.59605 31.1088 19.9923 31.1087 19.9923 31.1087C24.3533 31.1584 28.7132 30.9404 33.0476 30.4561C33.7444 30.2761 34.3838 29.9215 34.9055 29.4258C35.4193 28.9356 35.7844 28.3261 35.9677 27.6623C36.4469 25.1476 36.6799 22.5921 36.6634 20.0321C36.6995 17.4613 36.4668 14.8938 35.9691 12.3714V12.3728ZM16.6708 24.7547V15.2471L25.3632 20.0016L16.6708 24.7547Z" fill="#B59571"/>
    </symbol>

    <symbol id="vk" width="40" height="40" viewBox="0 0 40 40" fill="none" xmlns="http://www.w3.org/2000/svg">
        <path d="M36.6141 11.475C36.8975 12.2409 36.0271 14.028 34.0027 16.8363C33.7192 17.2192 33.3549 17.7298 32.9095 18.3681C31.9783 19.5594 31.4519 20.3466 31.3305 20.7295C31.128 21.2401 31.209 21.7295 31.5734 22.1975C31.7758 22.4528 32.2414 22.9634 32.9702 23.7293H33.0309V23.7931C34.691 25.3674 35.8044 26.7077 36.3712 27.814L36.4927 28.0693L36.6141 28.548V29.1543L36.189 29.633L35.1566 29.8564L30.7231 29.984C30.4397 30.0266 30.1057 29.984 29.7211 29.8564C29.3364 29.7287 29.0429 29.6011 28.8404 29.4735L28.476 29.2182C28.1117 28.9629 27.7068 28.5799 27.2614 28.0693C26.816 27.5587 26.4213 27.0907 26.0771 26.6652C25.733 26.2397 25.3787 25.8887 25.0143 25.6121C24.6499 25.3355 24.326 25.2398 24.0426 25.3249C24.0021 25.3249 23.9515 25.3462 23.8908 25.3887C23.8301 25.4313 23.7288 25.527 23.5871 25.6759C23.4454 25.8248 23.324 26.0057 23.2227 26.2184C23.1215 26.4312 23.0304 26.7397 22.9494 27.1439C22.8685 27.5481 22.828 28.0268 22.828 28.5799C22.828 28.7501 22.8077 28.9097 22.7672 29.0586C22.7268 29.2075 22.6863 29.3245 22.6458 29.4096L22.585 29.4735C22.3421 29.7287 22.0182 29.8564 21.6133 29.8564H19.6699C18.8197 29.9415 17.9593 29.8564 17.0888 29.6011C16.2183 29.3458 15.4592 29.016 14.8114 28.6118C14.1635 28.2076 13.5765 27.8034 13.0501 27.3992C12.5238 26.9949 12.1189 26.6439 11.8355 26.3461L11.4104 25.8993C11.2889 25.8142 11.1269 25.644 10.9245 25.3887C10.7221 25.1334 10.3071 24.5803 9.6795 23.7293C9.05194 22.8783 8.43449 21.9635 7.82717 20.9848C7.21985 20.0062 6.51131 18.7191 5.70156 17.1235C4.8918 15.5279 4.14277 13.8791 3.45447 12.1771C3.3735 11.9644 3.33301 11.7942 3.33301 11.6665C3.33301 11.5389 3.35325 11.4325 3.39374 11.3474L3.45447 11.2836C3.61642 11.0283 3.94033 10.9006 4.42618 10.9006H9.22401C9.34547 10.9006 9.46694 10.9325 9.5884 10.9964L9.89206 11.1559L9.95279 11.2198C10.1552 11.3474 10.2969 11.5389 10.3779 11.7942C10.6208 12.3899 10.8941 13.0175 11.1978 13.677C11.5015 14.3365 11.7343 14.8365 11.8962 15.1768L12.1391 15.6874C12.5035 16.4108 12.8376 17.0384 13.1412 17.5703C13.4449 18.1021 13.7182 18.517 13.9611 18.8148C14.204 19.1127 14.447 19.3467 14.6899 19.5169C14.9328 19.6871 15.1353 19.7722 15.2972 19.7722C15.4592 19.7722 15.6211 19.7509 15.7831 19.7084L15.8438 19.6126L16.0564 19.1978L16.2993 18.3681L16.4511 16.9001V14.6024C16.4106 14.1344 16.3499 13.6983 16.2689 13.294C16.1879 12.8898 16.107 12.6026 16.026 12.4324L15.9653 12.2409C15.6818 11.8154 15.1757 11.5389 14.447 11.4112C14.3255 11.4112 14.366 11.2623 14.5684 10.9645C14.7709 10.7517 14.9935 10.5815 15.2365 10.4539C15.8438 10.1135 17.2204 9.96454 19.3663 10.0071C20.2975 10.0071 21.087 10.0922 21.7348 10.2624C21.9372 10.3049 22.1194 10.3794 22.2814 10.4858C22.4433 10.5921 22.5648 10.7411 22.6458 10.9325C22.7268 11.124 22.7875 11.3155 22.828 11.507C22.8685 11.6984 22.8887 11.975 22.8887 12.3367V13.3259C22.8482 13.6663 22.828 14.0918 22.828 14.6024V16.1342C22.828 16.2619 22.8179 16.5172 22.7976 16.9001C22.7774 17.283 22.7672 17.5809 22.7672 17.7936C22.7672 18.0064 22.7875 18.251 22.828 18.5276C22.8685 18.8042 22.9393 19.0382 23.0405 19.2297C23.1418 19.4212 23.2733 19.5594 23.4353 19.6445C23.5163 19.6871 23.6074 19.719 23.7086 19.7403C23.8098 19.7615 23.9616 19.6977 24.1641 19.5488C24.3665 19.3999 24.5892 19.1871 24.8321 18.9106C25.0751 18.634 25.3787 18.2191 25.7431 17.666C26.1075 17.1128 26.4921 16.4746 26.897 15.7513C27.5853 14.4748 28.2129 13.0919 28.7797 11.6027C28.8202 11.5176 28.8708 11.4219 28.9315 11.3155C28.9923 11.2091 29.0631 11.1347 29.1441 11.0921H29.2048L29.2656 11.0283L29.5085 10.9645H29.8729L34.8529 10.9006C35.2983 10.8581 35.6728 10.8794 35.9764 10.9645C36.2801 11.0496 36.4522 11.1559 36.4927 11.2836L36.6141 11.475Z" fill="#B59571"/>
    </symbol>

    <symbol id="telegram" width="40" height="40" viewBox="0 0 40 40" fill="none" xmlns="http://www.w3.org/2000/svg">
        <path d="M29.6109 11.228L9.92631 18.4687C8.58292 18.9834 8.59069 19.6983 9.67984 20.0171L14.7337 21.5209L26.4268 14.4835C26.9797 14.1626 27.4848 14.3352 27.0696 14.6869L17.5959 22.8426H17.5937L17.5959 22.8437L17.2473 27.8128C17.758 27.8128 17.9833 27.5893 18.2698 27.3256L20.7245 25.0487L25.8305 28.6463C26.772 29.1409 27.4482 28.8867 27.6824 27.8149L31.0343 12.7467C31.3773 11.4345 30.5091 10.8404 29.6109 11.228Z" fill="#B59571"/>
    </symbol>



</svg>